<svg width="773" height="780" viewBox="0 0 773 780" fill="none" xmlns="http://www.w3.org/2000/svg">
<path d="M717.095 532.441C743 532.441 764 511.443 764 485.54C764 459.637 743 438.638 717.095 438.638C691.19 438.638 670.19 459.637 670.19 485.54C670.19 511.443 691.19 532.441 717.095 532.441Z" fill="#FBAB1A"/>
<path d="M598.189 160.297C624.094 160.297 645.094 139.299 645.094 113.396C645.094 87.4927 624.094 66.4941 598.189 66.4941C572.284 66.4941 551.284 87.4927 551.284 113.396C551.284 139.299 572.284 160.297 598.189 160.297Z" fill="#1771B9"/>
<path d="M175.278 160.078C201.182 160.078 222.182 139.079 222.182 113.176C222.182 87.273 201.182 66.2744 175.278 66.2744C149.373 66.2744 128.373 87.273 128.373 113.176C128.373 139.079 149.373 160.078 175.278 160.078Z" fill="#10984F"/>
<path d="M54.07 531.893C79.9749 531.893 100.975 510.894 100.975 484.991C100.975 459.088 79.9749 438.09 54.07 438.09C28.1651 438.09 7.16509 459.088 7.16509 484.991C7.16509 510.894 28.1651 531.893 54.07 531.893Z" fill="black"/>
<path d="M384.158 779.661C410.063 779.661 431.063 758.662 431.063 732.759C431.063 706.856 410.063 685.857 384.158 685.857C358.253 685.857 337.253 706.856 337.253 732.759C337.253 758.662 358.253 779.661 384.158 779.661Z" fill="#E42C27"/>
<path d="M686.191 195.692L616.272 199.418C612.874 199.747 609.477 199.856 605.97 199.966H604.874C601.696 199.966 598.518 199.966 595.23 199.747C570.024 197.884 544.27 187.912 528.16 167.749C513.914 149.887 508.434 127.093 504.708 105.067C502.078 89.6159 499.009 74.1646 495.941 58.823C479.393 -19.8577 434.679 4.57937 434.679 4.57937L418.022 262.538C416.049 310.974 463.94 345.931 509.53 329.384L748.219 242.703C748.219 242.703 749.205 242.594 749.644 242.484C741.753 199.528 701.643 195.692 686.081 195.911L686.191 195.692Z" fill="#1771B9"/>
<path d="M671.067 600.711L643.121 536.496C641.697 533.427 640.272 530.249 639.066 527.072L638.628 526.085C637.423 523.127 636.327 520.168 635.45 517.099C628.436 492.772 628.765 465.267 642.025 443.131C653.752 423.515 673.259 410.475 692.547 399.188C706.136 391.298 719.506 383.079 732.767 374.751C800.603 331.685 762.137 298.372 762.137 298.372L514.681 373.107C468.653 388.23 452.652 445.323 484.105 482.252L648.82 675.447C648.82 675.447 649.258 676.324 649.587 676.653C687.177 654.188 676.656 615.286 671.067 600.821V600.711Z" fill="#FBAB1A"/>
<path d="M265.58 722.568L318.842 677.091C321.362 674.789 323.992 672.598 326.623 670.406L327.499 669.749C330.02 667.886 332.541 665.913 335.28 664.16C356.431 650.352 382.952 642.572 407.939 648.709C430.077 654.188 448.378 668.982 464.707 684.214C476.214 694.843 488.05 705.254 499.886 715.554C560.928 767.826 581.531 721.362 581.531 721.362L437.748 506.579C409.802 466.91 350.514 468.335 324.431 509.209L187.881 723.225C187.881 723.225 187.223 723.883 186.894 724.321C219.333 753.689 253.416 732.211 265.69 722.677L265.58 722.568Z" fill="#E42C27"/>
<path d="M87.7144 192.953L157.633 197.226C161.031 197.555 164.428 197.774 167.825 197.884H168.921C172.099 197.884 175.278 197.884 178.565 197.774C203.771 196.021 229.635 186.378 245.854 166.324C260.211 148.571 265.909 125.778 269.854 103.752C272.594 88.3007 275.772 72.9591 279.06 57.5079C296.266 -21.0632 340.76 3.70254 340.76 3.70254L355.335 261.771C356.87 310.207 308.759 344.835 263.279 327.849L25.3571 239.306C25.3571 239.306 24.3709 239.197 23.9325 238.977C32.1518 196.021 72.262 192.514 87.8239 192.843L87.7144 192.953Z" fill="#1771B9"/>
<path d="M99.0023 597.095L127.606 533.208C129.14 530.14 130.455 526.962 131.77 523.894L132.208 522.907C133.414 519.949 134.51 516.99 135.496 513.922C142.839 489.704 142.839 462.089 129.797 439.843C118.29 420.118 99.0022 406.859 79.7142 395.353C66.2345 387.353 52.974 378.915 39.7135 370.477C-27.6849 326.644 11.1103 293.769 11.1103 293.769L257.8 371.135C303.718 386.805 319.061 444.008 287.28 480.608L120.482 672.05C120.482 672.05 120.044 672.927 119.715 673.255C82.454 650.462 93.3036 611.67 99.1119 597.205L99.0023 597.095Z" fill="black"/>
<path d="M717.095 532.441C743 532.441 764 511.443 764 485.54C764 459.637 743 438.638 717.095 438.638C691.19 438.638 670.19 459.637 670.19 485.54C670.19 511.443 691.19 532.441 717.095 532.441Z" fill="#E42C27"/>
<path d="M598.189 160.297C624.094 160.297 645.094 139.299 645.094 113.396C645.094 87.4927 624.094 66.4941 598.189 66.4941C572.284 66.4941 551.284 87.4927 551.284 113.396C551.284 139.299 572.284 160.297 598.189 160.297Z" fill="#FBAB1A"/>
<path d="M175.278 160.078C201.182 160.078 222.182 139.079 222.182 113.176C222.182 87.273 201.182 66.2744 175.278 66.2744C149.373 66.2744 128.373 87.273 128.373 113.176C128.373 139.079 149.373 160.078 175.278 160.078Z" fill="#1771B9"/>
<path d="M54.07 531.893C79.9749 531.893 100.975 510.894 100.975 484.991C100.975 459.088 79.9749 438.09 54.07 438.09C28.1651 438.09 7.16509 459.088 7.16509 484.991C7.16509 510.894 28.1651 531.893 54.07 531.893Z" fill="#10984F"/>
<path d="M384.158 779.661C410.063 779.661 431.063 758.662 431.063 732.759C431.063 706.856 410.063 685.857 384.158 685.857C358.253 685.857 337.253 706.856 337.253 732.759C337.253 758.662 358.253 779.661 384.158 779.661Z" fill="black"/>
<path d="M686.191 195.692L616.272 199.418C612.874 199.747 609.477 199.856 605.97 199.966H604.874C601.696 199.966 598.518 199.966 595.23 199.747C570.024 197.884 544.27 187.912 528.16 167.749C513.914 149.887 508.434 127.093 504.708 105.067C502.078 89.6159 499.009 74.1646 495.941 58.823C479.393 -19.8577 434.679 4.57937 434.679 4.57937L418.022 262.538C416.049 310.974 463.94 345.931 509.53 329.384L748.219 242.703C748.219 242.703 749.205 242.594 749.644 242.484C741.753 199.528 701.643 195.692 686.081 195.911L686.191 195.692Z" fill="#FBAB1A"/>
<path d="M671.067 600.711L643.121 536.496C641.697 533.427 640.272 530.249 639.066 527.072L638.628 526.085C637.423 523.127 636.327 520.168 635.45 517.099C628.436 492.772 628.765 465.267 642.025 443.131C653.752 423.515 673.259 410.475 692.547 399.188C706.136 391.298 719.506 383.079 732.767 374.751C800.603 331.685 762.137 298.372 762.137 298.372L514.681 373.107C468.653 388.23 452.652 445.323 484.105 482.252L648.82 675.447C648.82 675.447 649.258 676.324 649.587 676.653C687.177 654.188 676.656 615.286 671.067 600.821V600.711Z" fill="#E42C27"/>
<path d="M265.58 722.568L318.842 677.091C321.362 674.789 323.992 672.598 326.623 670.406L327.499 669.749C330.02 667.886 332.541 665.913 335.28 664.16C356.431 650.352 382.952 642.572 407.939 648.709C430.077 654.188 448.378 668.982 464.707 684.214C476.214 694.843 488.05 705.254 499.886 715.554C560.928 767.826 581.531 721.362 581.531 721.362L437.748 506.579C409.802 466.91 350.514 468.335 324.431 509.209L187.881 723.225C187.881 723.225 187.223 723.883 186.894 724.321C219.333 753.689 253.416 732.211 265.69 722.677L265.58 722.568Z" fill="black"/>
<path d="M99.0023 597.095L127.606 533.208C129.14 530.14 130.455 526.962 131.77 523.894L132.208 522.907C133.414 519.949 134.51 516.99 135.496 513.922C142.839 489.704 142.839 462.089 129.797 439.843C118.29 420.118 99.0022 406.859 79.7142 395.353C66.2345 387.353 52.974 378.915 39.7135 370.477C-27.6849 326.644 11.1103 293.769 11.1103 293.769L257.8 371.135C303.718 386.805 319.061 444.008 287.28 480.608L120.482 672.05C120.482 672.05 120.044 672.927 119.715 673.255C82.454 650.462 93.3036 611.67 99.1119 597.205L99.0023 597.095Z" fill="#10984F"/>
</svg>
