<svg width="269" height="54" viewBox="0 0 269 54" fill="none" xmlns="http://www.w3.org/2000/svg">
<path d="M1.50835 53.3271C1.03262 53.6077 0.419544 53.4494 0.139003 52.9737C-0.141538 52.498 0.0166911 51.8849 0.492417 51.6044L1.00038 52.4657L1.50835 53.3271ZM157.067 24.0435L156.184 23.5734L157.067 24.0435ZM145.857 17.9412L144.859 17.9983L145.857 17.9412ZM267.769 5.41776C268.321 5.41053 268.775 5.85233 268.782 6.40457L268.9 15.4038C268.907 15.956 268.465 16.4096 267.913 16.4168C267.361 16.4241 266.907 15.9822 266.9 15.43L266.795 7.43069L258.796 7.53556C258.243 7.54279 257.79 7.10099 257.783 6.54875C257.775 5.99651 258.217 5.54297 258.77 5.53572L267.769 5.41776ZM2.71044 50.3217C3.19087 50.0493 3.80116 50.2179 4.07357 50.6983C4.34598 51.1788 4.17734 51.7891 3.69691 52.0615L3.20368 51.1916L2.71044 50.3217ZM8.09071 49.6668C7.6014 49.923 6.99711 49.7339 6.741 49.2446C6.48488 48.7553 6.67392 48.151 7.16323 47.8949L7.62697 48.7809L8.09071 49.6668ZM11.7222 45.6055C12.2198 45.3659 12.8174 45.5751 13.0569 46.0728C13.2965 46.5704 13.0872 47.168 12.5896 47.4076L12.1559 46.5065L11.7222 45.6055ZM17.1504 45.3048C16.6451 45.5277 16.0548 45.2988 15.8319 44.7935C15.609 44.2882 15.8379 43.6978 16.3432 43.4749L16.7468 44.3899L17.1504 45.3048ZM21.0214 41.502C21.5337 41.2957 22.1162 41.5438 22.3225 42.0561C22.5288 42.5684 22.2808 43.151 21.7685 43.3572L21.3949 42.4296L21.0214 41.502ZM26.4589 41.5558C25.9402 41.7455 25.3659 41.4789 25.1762 40.9602C24.9864 40.4415 25.2531 39.8673 25.7718 39.6775L26.1153 40.6167L26.4589 41.5558ZM30.5802 38.0042C31.1046 37.8308 31.6702 38.1154 31.8435 38.6398C32.0168 39.1642 31.7322 39.7298 31.2078 39.9031L30.894 38.9537L30.5802 38.0042ZM35.9987 38.4009C35.4692 38.5581 34.9126 38.2563 34.7554 37.7269C34.5982 37.1975 34.9 36.6408 35.4294 36.4836L35.7141 37.4423L35.9987 38.4009ZM40.3149 35.1121C40.8487 34.9707 41.3962 35.2889 41.5376 35.8228C41.679 36.3566 41.3608 36.9041 40.8269 37.0455L40.5709 36.0788L40.3149 35.1121ZM45.71 35.8276C45.1723 35.9535 44.6342 35.6197 44.5083 35.082C44.3823 34.5443 44.7161 34.0062 45.2539 33.8803L45.4819 34.8539L45.71 35.8276ZM50.2217 32.7895C50.7627 32.6786 51.2913 33.0272 51.4022 33.5682C51.5132 34.1092 51.1646 34.6378 50.6236 34.7487L50.4226 33.7691L50.2217 32.7895ZM55.5602 33.8048C55.0165 33.9013 54.4974 33.5388 54.4008 32.995C54.3043 32.4512 54.6668 31.9321 55.2106 31.8356L55.3854 32.8202L55.5602 33.8048ZM60.2162 31.0128C60.7622 30.9301 61.2719 31.3057 61.3546 31.8518C61.4373 32.3979 61.0617 32.9076 60.5156 32.9903L60.3659 32.0015L60.2162 31.0128ZM65.4983 32.2978C64.9504 32.3673 64.4499 31.9794 64.3805 31.4315C64.311 30.8836 64.6989 30.3832 65.2468 30.3137L65.3726 31.3058L65.4983 32.2978ZM70.2977 29.733C70.847 29.6761 71.3385 30.0754 71.3953 30.6247C71.4521 31.1741 71.0529 31.6655 70.5035 31.7223L70.4006 30.7277L70.2977 29.733ZM75.5178 31.2588C74.9673 31.3037 74.4846 30.8939 74.4397 30.3435C74.3947 29.793 74.8045 29.3104 75.3549 29.2654L75.4363 30.2621L75.5178 31.2588ZM80.4156 28.9039C80.9668 28.8701 81.4411 29.2895 81.475 29.8407C81.5089 30.392 81.0894 30.8663 80.5382 30.9002L80.4769 29.902L80.4156 28.9039ZM85.5626 30.6391C85.0108 30.6627 84.5444 30.2345 84.5208 29.6827C84.4972 29.131 84.9254 28.6645 85.4772 28.641L85.5199 29.64L85.5626 30.6391ZM90.5378 28.4685C91.0899 28.4543 91.5489 28.8903 91.5631 29.4424C91.5773 29.9945 91.1413 30.4536 90.5892 30.4678L90.5635 29.4681L90.5378 28.4685ZM95.6293 30.3775C95.077 30.3833 94.6247 29.9403 94.6189 29.388C94.6132 28.8358 95.0562 28.3834 95.6085 28.3777L95.6189 29.3776L95.6293 30.3775ZM100.682 28.3595C101.235 28.3611 101.681 28.8101 101.679 29.3624C101.678 29.9147 101.229 30.3611 100.676 30.3595L100.679 29.3595L100.682 28.3595ZM105.724 30.4033C105.172 30.3955 104.73 29.9416 104.738 29.3894C104.746 28.8371 105.2 28.3957 105.752 28.4035L105.738 29.4034L105.724 30.4033ZM110.817 28.4973C111.369 28.5097 111.806 28.9674 111.794 29.5195C111.781 30.0717 111.324 30.5092 110.771 30.4968L110.794 29.497L110.817 28.4973ZM115.82 30.6254C115.268 30.61 114.833 30.15 114.848 29.5979C114.864 29.0459 115.324 28.6108 115.876 28.6262L115.848 29.6258L115.82 30.6254ZM120.928 28.772C121.48 28.7881 121.914 29.2486 121.898 29.8007C121.882 30.3527 121.421 30.7872 120.869 30.7711L120.899 29.7716L120.928 28.772ZM125.919 30.9105C125.367 30.8967 124.93 30.4379 124.944 29.8858C124.958 29.3337 125.417 28.8973 125.969 28.9111L125.944 29.9108L125.919 30.9105ZM131.004 29.0115C131.556 29.0188 131.998 29.4725 131.99 30.0247C131.983 30.5769 131.529 31.0187 130.977 31.0113L130.99 30.0114L131.004 29.0115ZM136.079 31.0252C135.527 31.0309 135.074 30.5878 135.069 30.0356C135.063 29.4833 135.506 29.031 136.058 29.0253L136.069 30.0252L136.079 31.0252ZM141.065 28.8758C141.616 28.8461 142.087 29.2691 142.117 29.8205C142.147 30.372 141.724 30.8432 141.172 30.8729L141.119 29.8743L141.065 28.8758ZM146.29 30.4086C145.743 30.4835 145.239 30.1007 145.164 29.5536C145.089 29.0064 145.472 28.5021 146.019 28.4271L146.155 29.4178L146.29 30.4086ZM150.779 27.4099C151.305 27.2419 151.867 27.5322 152.035 28.0583C152.203 28.5844 151.913 29.1471 151.387 29.3151L151.083 28.3625L150.779 27.4099ZM156.18 26.7531C155.769 27.1219 155.136 27.0875 154.768 26.6763C154.399 26.2651 154.433 25.6329 154.845 25.2642L155.512 26.0086L156.18 26.7531ZM157.195 21.5066C157.419 21.0021 158.01 20.7752 158.515 20.9998C159.019 21.2244 159.246 21.8156 159.022 22.3201L158.108 21.9134L157.195 21.5066ZM160.65 17.6827C160.514 18.2178 159.969 18.5408 159.434 18.4041C158.899 18.2674 158.576 17.7229 158.712 17.1878L159.681 17.4352L160.65 17.6827ZM159.374 12.7258C159.393 12.1738 159.856 11.7419 160.408 11.7609C160.96 11.78 161.392 12.2429 161.373 12.7949L160.373 12.7603L159.374 12.7258ZM160.87 7.81564C161.006 8.3509 160.682 8.89512 160.147 9.0312C159.612 9.16727 159.068 8.84367 158.932 8.30841L159.901 8.06203L160.87 7.81564ZM157.112 4.39596C156.777 3.95717 156.86 3.32958 157.299 2.99419C157.738 2.6588 158.366 2.74263 158.701 3.18141L157.906 3.78869L157.112 4.39596ZM154.321 0.1546C154.859 0.279503 155.194 0.816873 155.069 1.35484C154.944 1.89282 154.406 2.22768 153.868 2.10278L154.095 1.12869L154.321 0.1546ZM150.344 3.04888C149.925 3.40892 149.294 3.36129 148.934 2.94249C148.574 2.5237 148.622 1.89233 149.04 1.53229L149.692 2.29058L150.344 3.04888ZM146.202 5.86698C146.398 5.3506 146.976 5.09079 147.492 5.28667C148.008 5.48255 148.268 6.05995 148.072 6.57633L147.137 6.22165L146.202 5.86698ZM147.032 10.9698C146.961 11.5175 146.46 11.9043 145.912 11.8336C145.364 11.7629 144.978 11.2616 145.048 10.7139L146.04 10.8418L147.032 10.9698ZM144.778 15.5699C144.774 15.0176 145.219 14.5666 145.771 14.5626C146.323 14.5585 146.774 15.0029 146.778 15.5552L145.778 15.5625L144.778 15.5699ZM147.164 20.2755C147.274 20.8167 146.924 21.3446 146.383 21.4545C145.842 21.5644 145.314 21.2147 145.204 20.6735L146.184 20.4745L147.164 20.2755ZM147.01 25.7313C146.754 25.2418 146.943 24.6376 147.432 24.3817C147.922 24.1258 148.526 24.3151 148.782 24.8045L147.896 25.2679L147.01 25.7313ZM151.548 28.7854C151.913 29.1992 151.874 29.8312 151.461 30.1969C151.047 30.5626 150.415 30.5236 150.049 30.1098L150.798 29.4476L151.548 28.7854ZM153.925 33.7021C153.487 33.3655 153.405 32.7376 153.742 32.2998C154.079 31.862 154.707 31.7799 155.144 32.1166L154.535 32.9093L153.925 33.7021ZM159.304 34.8258C159.788 35.0931 159.963 35.7015 159.695 36.1848C159.428 36.6681 158.82 36.8432 158.336 36.5759L158.82 35.7008L159.304 34.8258ZM163.042 38.811C162.53 38.6032 162.284 38.02 162.492 37.5083C162.699 36.9965 163.283 36.7501 163.794 36.9578L163.418 37.8844L163.042 38.811ZM168.54 38.6066C169.069 38.7625 169.372 39.3184 169.217 39.8482C169.061 40.378 168.505 40.6812 167.975 40.5253L168.257 39.5659L168.54 38.6066ZM172.997 41.7702C172.456 41.6595 172.107 41.1311 172.218 40.5901C172.328 40.049 172.857 39.7001 173.398 39.8108L173.197 40.7905L172.997 41.7702ZM178.359 40.6313C178.907 40.7015 179.294 41.2025 179.224 41.7503C179.154 42.2981 178.653 42.6853 178.105 42.6151L178.232 41.6232L178.359 40.6313ZM183.26 43.0984C182.709 43.065 182.289 42.591 182.323 42.0397C182.356 41.4884 182.83 41.0686 183.381 41.102L183.321 42.1002L183.26 43.0984ZM188.432 41.2504C188.984 41.2499 189.432 41.6972 189.433 42.2495C189.433 42.8017 188.986 43.2499 188.434 43.2504L188.433 42.2504L188.432 41.2504ZM193.596 43.0961C193.044 43.1282 192.571 42.7073 192.539 42.156C192.507 41.6046 192.928 41.1316 193.479 41.0995L193.538 42.0978L193.596 43.0961ZM198.508 40.6686C199.057 40.6067 199.552 41.0014 199.614 41.5502C199.676 42.099 199.281 42.5941 198.732 42.656L198.62 41.6623L198.508 40.6686ZM203.838 41.9454C203.293 42.0355 202.779 41.6669 202.689 41.122C202.598 40.5771 202.967 40.0623 203.512 39.9722L203.675 40.9588L203.838 41.9454ZM208.477 39.0226C209.017 38.9054 209.549 39.248 209.667 39.7877C209.784 40.3274 209.441 40.8599 208.901 40.9771L208.689 39.9998L208.477 39.0226ZM213.91 39.762C213.377 39.905 212.829 39.5886 212.686 39.0551C212.543 38.5217 212.859 37.9733 213.392 37.8302L213.651 38.7961L213.91 39.762ZM218.247 36.4044C218.773 36.2363 219.336 36.5266 219.504 37.0527C219.672 37.5788 219.382 38.1415 218.856 38.3095L218.551 37.3569L218.247 36.4044ZM223.728 36.6282C223.21 36.8204 222.635 36.5563 222.443 36.0385C222.25 35.5208 222.514 34.9453 223.032 34.7531L223.38 35.6907L223.728 36.6282ZM227.739 32.8841C228.247 32.6687 228.834 32.9064 229.05 33.415C229.265 33.9235 229.027 34.5104 228.519 34.7258L228.129 33.8049L227.739 32.8841ZM233.215 32.6121C232.716 32.8499 232.119 32.6387 231.881 32.1402C231.644 31.6418 231.855 31.0449 232.353 30.8071L232.784 31.7096L233.215 32.6121ZM236.868 28.5299C237.355 28.2704 237.961 28.4553 238.22 28.9428C238.48 29.4304 238.295 30.036 237.807 30.2954L237.338 29.4126L236.868 28.5299ZM242.295 27.7808C241.819 28.0611 241.206 27.9025 240.926 27.4267C240.646 26.9508 240.804 26.3378 241.28 26.0575L241.788 26.9191L242.295 27.7808ZM245.584 23.3967C246.047 23.0963 246.666 23.2285 246.967 23.692C247.267 24.1554 247.135 24.7746 246.672 25.075L246.128 24.2358L245.584 23.3967ZM250.931 22.1849C250.481 22.5046 249.856 22.3985 249.537 21.9481C249.217 21.4977 249.323 20.8735 249.774 20.5539L250.352 21.3694L250.931 22.1849ZM253.845 17.5355C254.282 17.1975 254.91 17.2775 255.248 17.7142C255.586 18.151 255.506 18.7791 255.069 19.1171L254.457 18.3263L253.845 17.5355ZM259.082 15.8778C258.659 16.2334 258.028 16.1792 257.673 15.7566C257.317 15.334 257.371 14.7032 257.794 14.3476L258.438 15.1127L259.082 15.8778ZM261.598 11.0135C262.006 10.6412 262.638 10.6702 263.011 11.0782C263.383 11.4861 263.354 12.1186 262.946 12.4909L262.272 11.7522L261.598 11.0135ZM266.671 8.95498C266.278 9.34298 265.645 9.3389 265.257 8.94587C264.869 8.55283 264.873 7.91968 265.266 7.53168L265.968 8.24333L266.671 8.95498ZM1.00038 52.4657L0.492417 51.6044C1.23085 51.1689 1.97022 50.7414 2.71044 50.3217L3.20368 51.1916L3.69691 52.0615C2.96653 52.4756 2.23697 52.8974 1.50835 53.3271L1.00038 52.4657ZM7.62697 48.7809L7.16323 47.8949C8.68042 47.1008 10.2003 46.338 11.7222 45.6055L12.1559 46.5065L12.5896 47.4076C11.0877 48.1305 9.58784 48.8832 8.09071 49.6668L7.62697 48.7809ZM16.7468 44.3899L16.3432 43.4749C17.9017 42.7874 19.4614 42.1302 21.0214 41.502L21.3949 42.4296L21.7685 43.3572C20.2284 43.9774 18.6887 44.6262 17.1504 45.3048L16.7468 44.3899ZM26.1153 40.6167L25.7718 39.6775C27.3755 39.0909 28.9786 38.5336 30.5802 38.0042L30.894 38.9537L31.2078 39.9031C29.6258 40.4261 28.0425 40.9765 26.4589 41.5558L26.1153 40.6167ZM35.7141 37.4423L35.4294 36.4836C37.0608 35.9993 38.6896 35.5426 40.3149 35.1121L40.5709 36.0788L40.8269 37.0455C39.2204 37.471 37.6106 37.9223 35.9987 38.4009L35.7141 37.4423ZM45.4819 34.8539L45.2539 33.8803C46.9149 33.4912 48.5712 33.1281 50.2217 32.7895L50.4226 33.7691L50.6236 34.7487C48.9907 35.0837 47.3525 35.4428 45.71 35.8276L45.4819 34.8539ZM55.3854 32.8202L55.2106 31.8356C56.8866 31.538 58.5555 31.2643 60.2162 31.0128L60.3659 32.0015L60.5156 32.9903C58.8713 33.2393 57.2191 33.5102 55.5602 33.8048L55.3854 32.8202ZM65.3726 31.3058L65.2468 30.3137C66.9408 30.099 68.6249 29.9061 70.2977 29.733L70.4006 30.7277L70.5035 31.7223C68.8454 31.8939 67.1766 32.0851 65.4983 32.2978L65.3726 31.3058ZM75.4363 30.2621L75.3549 29.2654C77.0555 29.1265 78.7428 29.0067 80.4156 28.9039L80.4769 29.902L80.5382 30.9002C78.8783 31.0021 77.2044 31.121 75.5178 31.2588L75.4363 30.2621ZM85.5199 29.64L85.4772 28.641C87.1817 28.5681 88.8691 28.5114 90.5378 28.4685L90.5635 29.4681L90.5892 30.4678C88.9312 30.5104 87.2551 30.5668 85.5626 30.6391L85.5199 29.64ZM95.6189 29.3776L95.6085 28.3777C97.3228 28.3598 99.0147 28.3546 100.682 28.3595L100.679 29.3595L100.676 30.3595C99.0169 30.3547 97.3339 30.3598 95.6293 30.3775L95.6189 29.3776ZM105.738 29.4034L105.752 28.4035C107.47 28.4276 109.159 28.4599 110.817 28.4973L110.794 29.497L110.771 30.4968C109.119 30.4595 107.436 30.4273 105.724 30.4033L105.738 29.4034ZM115.848 29.6258L115.876 28.6262C117.6 28.6742 119.286 28.7242 120.928 28.772L120.899 29.7716L120.869 30.7711C119.226 30.7233 117.543 30.6734 115.82 30.6254L115.848 29.6258ZM125.944 29.9108L125.969 28.9111C127.706 28.9546 129.385 28.99 131.004 29.0115L130.99 30.0114L130.977 31.0113C129.348 30.9897 127.661 30.9541 125.919 30.9105L125.944 29.9108ZM136.069 30.0252L136.058 29.0253C137.824 29.0071 139.495 28.9603 141.065 28.8758L141.119 29.8743L141.172 30.8729C139.567 30.9594 137.866 31.0067 136.079 31.0252L136.069 30.0252ZM146.155 29.4178L146.019 28.4271C147.821 28.1802 149.41 27.8469 150.779 27.4099L151.083 28.3625L151.387 29.3151C149.878 29.797 148.17 30.1511 146.29 30.4086L146.155 29.4178ZM155.512 26.0086L154.845 25.2642C155.404 24.7625 155.849 24.2019 156.184 23.5734L157.067 24.0435L157.949 24.5136C157.497 25.3622 156.902 26.1055 156.18 26.7531L155.512 26.0086ZM157.067 24.0435L156.184 23.5734C156.557 22.8729 156.893 22.1836 157.195 21.5066L158.108 21.9134L159.022 22.3201C158.701 23.0411 158.344 23.7726 157.949 24.5136L157.067 24.0435ZM159.681 17.4352L158.712 17.1878C159.118 15.6004 159.326 14.1078 159.374 12.7258L160.373 12.7603L161.373 12.7949C161.32 14.3277 161.09 15.963 160.65 17.6827L159.681 17.4352ZM159.901 8.06203L158.932 8.30841C158.528 6.72049 157.883 5.40494 157.112 4.39596L157.906 3.78869L158.701 3.18141C159.653 4.42668 160.407 5.99389 160.87 7.81564L159.901 8.06203ZM154.095 1.12869L153.868 2.10278C152.693 1.82996 151.464 2.08606 150.344 3.04888L149.692 2.29058L149.04 1.53229C150.628 0.167576 152.505 -0.266963 154.321 0.1546L154.095 1.12869ZM147.137 6.22165L148.072 6.57633C147.619 7.77222 147.257 9.22814 147.032 10.9698L146.04 10.8418L145.048 10.7139C145.289 8.84533 145.684 7.23342 146.202 5.86698L147.137 6.22165ZM145.778 15.5625L146.778 15.5552C146.784 16.2976 146.809 17.0736 146.855 17.8841L145.857 17.9412L144.859 17.9983C144.81 17.1563 144.784 16.3471 144.778 15.5699L145.778 15.5625ZM145.857 17.9412L146.855 17.8841C146.902 18.6976 147.005 19.495 147.164 20.2755L146.184 20.4745L145.204 20.6735C145.026 19.7991 144.91 18.9068 144.859 17.9983L145.857 17.9412ZM147.896 25.2679L148.782 24.8045C149.511 26.1984 150.437 27.5283 151.548 28.7854L150.798 29.4476L150.049 30.1098C148.84 28.7414 147.819 27.2792 147.01 25.7313L147.896 25.2679ZM154.535 32.9093L155.144 32.1166C156.404 33.0853 157.794 33.9905 159.304 34.8258L158.82 35.7008L158.336 36.5759C156.746 35.6962 155.271 34.7368 153.925 33.7021L154.535 32.9093ZM163.418 37.8844L163.794 36.9578C165.296 37.5673 166.88 38.1183 168.54 38.6066L168.257 39.5659L167.975 40.5253C166.255 40.0193 164.608 39.4468 163.042 38.811L163.418 37.8844ZM173.197 40.7905L173.398 39.8108C175 40.1384 176.655 40.4129 178.359 40.6313L178.232 41.6232L178.105 42.6151C176.353 42.3906 174.649 42.1081 172.997 41.7702L173.197 40.7905ZM183.321 42.1002L183.381 41.102C185.03 41.2019 186.715 41.2521 188.432 41.2504L188.433 42.2504L188.434 43.2504C186.676 43.2521 184.951 43.2008 183.26 43.0984L183.321 42.1002ZM193.538 42.0978L193.479 41.0995C195.132 41.0031 196.81 40.86 198.508 40.6686L198.62 41.6623L198.732 42.656C196.999 42.8515 195.285 42.9976 193.596 43.0961L193.538 42.0978ZM203.675 40.9588L203.512 39.9722C205.152 39.7008 206.808 39.3848 208.477 39.0226L208.689 39.9998L208.901 40.9771C207.2 41.3463 205.512 41.6686 203.838 41.9454L203.675 40.9588ZM213.651 38.7961L213.392 37.8302C215.003 37.3984 216.622 36.9235 218.247 36.4044L218.551 37.3569L218.856 38.3095C217.2 38.8383 215.551 39.322 213.91 39.762L213.651 38.7961ZM223.38 35.6907L223.032 34.7531C224.598 34.1721 226.168 33.5495 227.739 32.8841L228.129 33.8049L228.519 34.7258C226.92 35.403 225.322 36.0368 223.728 36.6282L223.38 35.6907ZM232.784 31.7096L232.353 30.8071C233.859 30.0885 235.365 29.3297 236.868 28.5299L237.338 29.4126L237.807 30.2954C236.279 31.1091 234.747 31.881 233.215 32.6121L232.784 31.7096ZM241.788 26.9191L241.28 26.0575C242.719 25.2097 244.154 24.3231 245.584 23.3967L246.128 24.2358L246.672 25.075C245.218 26.0169 243.759 26.9186 242.295 27.7808L241.788 26.9191ZM250.352 21.3694L249.774 20.5539C251.138 19.5856 252.496 18.5797 253.845 17.5355L254.457 18.3263L255.069 19.1171C253.698 20.1783 252.318 21.2007 250.931 22.1849L250.352 21.3694ZM258.438 15.1127L257.794 14.3476C259.071 13.2725 260.34 12.1613 261.598 11.0135L262.272 11.7522L262.946 12.4909C261.668 13.6568 260.38 14.7855 259.082 15.8778L258.438 15.1127ZM265.968 8.24333L265.266 7.53168C265.869 6.93666 266.469 6.33276 267.066 5.71989L267.782 6.41768L268.498 7.11545C267.892 7.73765 267.283 8.3508 266.671 8.95498L265.968 8.24333Z" fill="url(#paint0_linear_223_6604)"/>
<defs>
<linearGradient id="paint0_linear_223_6604" x1="3.44545" y1="62.7246" x2="266.272" y2="0.0835533" gradientUnits="userSpaceOnUse">
<stop stop-color="#EE334E"/>
<stop offset="0.333333" stop-color="#FCB131"/>
<stop offset="0.666667" stop-color="#00A651"/>
<stop offset="1" stop-color="#0081C8"/>
</linearGradient>
</defs>
</svg>
