<svg width="1185" height="400" viewBox="0 0 1185 400" fill="none" xmlns="http://www.w3.org/2000/svg">
<path d="M763.555 272.311C777.106 272.311 788.092 261.572 788.092 248.324C788.092 235.077 777.106 224.338 763.555 224.338C750.004 224.338 739.019 235.077 739.019 248.324C739.019 261.572 750.004 272.311 763.555 272.311Z" fill="#FBAB1A"/>
<path d="M701.354 81.9902C714.905 81.9902 725.89 71.2512 725.89 58.004C725.89 44.7568 714.905 34.0178 701.354 34.0178C687.803 34.0178 676.817 44.7568 676.817 58.004C676.817 71.2512 687.803 81.9902 701.354 81.9902Z" fill="#1771B9"/>
<path d="M480.124 81.8782C493.675 81.8782 504.661 71.1392 504.661 57.892C504.661 44.6447 493.675 33.9058 480.124 33.9058C466.573 33.9058 455.588 44.6447 455.588 57.892C455.588 71.1392 466.573 81.8782 480.124 81.8782Z" fill="#10984F"/>
<path d="M416.719 272.031C430.27 272.031 441.256 261.292 441.256 248.044C441.256 234.797 430.27 224.058 416.719 224.058C403.168 224.058 392.183 234.797 392.183 248.044C392.183 261.292 403.168 272.031 416.719 272.031Z" fill="black"/>
<path d="M589.392 398.743C602.943 398.743 613.928 388.004 613.928 374.756C613.928 361.509 602.943 350.77 589.392 350.77C575.841 350.77 564.855 361.509 564.855 374.756C564.855 388.004 575.841 398.743 589.392 398.743Z" fill="#E42C27"/>
<path d="M747.388 100.092L710.813 101.997C709.036 102.166 707.258 102.222 705.424 102.278H704.851C703.188 102.278 701.526 102.278 699.806 102.166C686.62 101.213 673.148 96.113 664.721 85.8012C657.268 76.6662 654.402 65.0094 652.453 53.7448C651.077 45.8428 649.472 37.9408 647.866 30.0949C639.21 -10.1436 615.82 2.35383 615.82 2.35383L607.106 134.278C606.074 159.049 631.127 176.926 654.975 168.464L779.836 124.134C779.836 124.134 780.352 124.078 780.581 124.022C776.454 102.053 755.471 100.092 747.331 100.204L747.388 100.092Z" fill="#1771B9"/>
<path d="M739.477 307.225L724.859 274.384C724.113 272.815 723.368 271.19 722.737 269.564L722.508 269.06C721.878 267.547 721.304 266.034 720.846 264.465C717.177 252.023 717.349 237.957 724.285 226.636C730.419 216.604 740.624 209.935 750.714 204.163C757.822 200.128 764.816 195.925 771.753 191.665C807.239 169.641 787.117 152.604 787.117 152.604L657.67 190.825C633.592 198.559 625.222 227.757 641.675 246.643L727.84 345.446C727.84 345.446 728.069 345.894 728.241 346.063C747.905 334.574 742.401 314.679 739.477 307.281V307.225Z" fill="#FBAB1A"/>
<path d="M527.363 369.544L555.224 346.287C556.543 345.11 557.919 343.989 559.295 342.868L559.753 342.532C561.072 341.579 562.39 340.57 563.824 339.674C574.888 332.612 588.761 328.633 601.832 331.772C613.413 334.574 622.986 342.14 631.528 349.929C637.548 355.366 643.739 360.69 649.931 365.958C681.862 392.69 692.64 368.928 692.64 368.928L617.425 259.085C602.807 238.797 571.792 239.526 558.148 260.43L486.717 369.881C486.717 369.881 486.373 370.217 486.201 370.441C503.17 385.46 520.999 374.476 527.42 369.6L527.363 369.544Z" fill="#E42C27"/>
<path d="M434.319 98.6909L470.895 100.877C472.672 101.045 474.449 101.157 476.226 101.213H476.799C478.462 101.213 480.124 101.213 481.844 101.157C495.03 100.26 508.559 95.3284 517.044 85.0726C524.554 75.9937 527.535 64.3369 529.599 53.0723C531.032 45.1703 532.694 37.3244 534.414 29.4224C543.415 -10.7601 566.69 1.9055 566.69 1.9055L574.315 133.886C575.117 158.656 549.95 176.366 526.159 167.679L401.699 122.397C401.699 122.397 401.183 122.341 400.954 122.229C405.254 100.26 426.236 98.4668 434.376 98.6349L434.319 98.6909Z" fill="#1771B9"/>
<path d="M440.224 305.376L455.186 272.703C455.989 271.134 456.677 269.508 457.365 267.939L457.594 267.435C458.225 265.922 458.798 264.409 459.314 262.839C463.155 250.454 463.155 236.331 456.333 224.955C450.314 214.867 440.224 208.086 430.134 202.201C423.083 198.11 416.146 193.795 409.209 189.48C373.952 167.063 394.246 150.25 394.246 150.25L523.292 189.816C547.313 197.83 555.339 227.084 538.714 245.803L451.46 343.709C451.46 343.709 451.231 344.157 451.059 344.325C431.567 332.668 437.243 312.829 440.281 305.432L440.224 305.376Z" fill="black"/>
<path d="M763.555 272.311C777.106 272.311 788.092 261.572 788.092 248.324C788.092 235.077 777.106 224.338 763.555 224.338C750.004 224.338 739.019 235.077 739.019 248.324C739.019 261.572 750.004 272.311 763.555 272.311Z" fill="#E42C27"/>
<path d="M701.354 81.9902C714.905 81.9902 725.89 71.2512 725.89 58.004C725.89 44.7568 714.905 34.0178 701.354 34.0178C687.803 34.0178 676.817 44.7568 676.817 58.004C676.817 71.2512 687.803 81.9902 701.354 81.9902Z" fill="#FBAB1A"/>
<path d="M480.124 81.8782C493.675 81.8782 504.661 71.1392 504.661 57.892C504.661 44.6447 493.675 33.9058 480.124 33.9058C466.573 33.9058 455.588 44.6447 455.588 57.892C455.588 71.1392 466.573 81.8782 480.124 81.8782Z" fill="#1771B9"/>
<path d="M416.719 272.031C430.27 272.031 441.256 261.292 441.256 248.044C441.256 234.797 430.27 224.058 416.719 224.058C403.168 224.058 392.183 234.797 392.183 248.044C392.183 261.292 403.168 272.031 416.719 272.031Z" fill="#10984F"/>
<path d="M589.392 398.743C602.943 398.743 613.928 388.004 613.928 374.756C613.928 361.509 602.943 350.77 589.392 350.77C575.841 350.77 564.855 361.509 564.855 374.756C564.855 388.004 575.841 398.743 589.392 398.743Z" fill="black"/>
<path d="M747.388 100.092L710.813 101.997C709.036 102.166 707.258 102.222 705.424 102.278H704.851C703.188 102.278 701.526 102.278 699.806 102.166C686.62 101.213 673.148 96.113 664.721 85.8012C657.268 76.6662 654.402 65.0094 652.453 53.7448C651.077 45.8428 649.472 37.9408 647.866 30.0949C639.21 -10.1436 615.82 2.35383 615.82 2.35383L607.106 134.278C606.074 159.049 631.127 176.926 654.975 168.464L779.836 124.134C779.836 124.134 780.352 124.078 780.581 124.022C776.454 102.053 755.471 100.092 747.331 100.204L747.388 100.092Z" fill="#FBAB1A"/>
<path d="M739.477 307.225L724.859 274.384C724.113 272.815 723.368 271.19 722.737 269.564L722.508 269.06C721.878 267.547 721.304 266.034 720.846 264.465C717.177 252.023 717.349 237.957 724.285 226.636C730.419 216.604 740.624 209.935 750.714 204.163C757.822 200.128 764.816 195.925 771.753 191.665C807.239 169.641 787.117 152.604 787.117 152.604L657.67 190.825C633.592 198.559 625.222 227.757 641.675 246.643L727.84 345.446C727.84 345.446 728.069 345.894 728.241 346.063C747.905 334.574 742.401 314.679 739.477 307.281V307.225Z" fill="#E42C27"/>
<path d="M527.363 369.544L555.224 346.287C556.543 345.11 557.919 343.989 559.295 342.868L559.753 342.532C561.072 341.579 562.39 340.57 563.824 339.674C574.888 332.612 588.761 328.633 601.832 331.772C613.413 334.574 622.986 342.14 631.528 349.929C637.548 355.366 643.739 360.69 649.931 365.958C681.862 392.69 692.64 368.928 692.64 368.928L617.425 259.085C602.807 238.797 571.792 239.526 558.148 260.43L486.717 369.881C486.717 369.881 486.373 370.217 486.201 370.441C503.17 385.46 520.999 374.476 527.42 369.6L527.363 369.544Z" fill="black"/>
<path d="M440.224 305.376L455.186 272.703C455.989 271.134 456.677 269.508 457.365 267.939L457.594 267.435C458.225 265.922 458.798 264.409 459.314 262.839C463.155 250.454 463.155 236.331 456.333 224.955C450.314 214.867 440.224 208.086 430.134 202.201C423.083 198.11 416.146 193.795 409.209 189.48C373.952 167.063 394.246 150.25 394.246 150.25L523.292 189.816C547.313 197.83 555.339 227.084 538.714 245.803L451.46 343.709C451.46 343.709 451.231 344.157 451.059 344.325C431.567 332.668 437.243 312.829 440.281 305.432L440.224 305.376Z" fill="#10984F"/>
<path d="M1178.5 0C1158.49 0.280213 1090.33 3.75485 1090.33 38.7254V238.909C1090.33 279.596 1070.6 317.089 1017.46 317.089C964.318 317.089 944.597 279.596 944.597 238.909V75.0409V38.7254C944.597 3.75485 876.893 0.280213 857 0H851.554V246.363C851.554 337.432 915.131 399.527 1017 399.527C1118.88 399.527 1184.11 337.376 1184.11 246.363V0H1178.61H1178.5Z" fill="black"/>
<path d="M388.456 0H307.967C282.284 0 263.653 25.8356 263.653 25.8356L196.177 140.274L130.307 28.6377C118.497 12.6096 105.943 5.54821 96.7701 2.46587C90.1773 0.392298 78.7117 0.0560425 73.9534 0H0L145.728 218.51V350.378C145.728 357.607 146.646 362.707 147.506 365.958C151.289 378.063 163.041 399.583 198.986 399.527H239.403V218.51L350.734 55.314L388.456 0Z" fill="black"/>
</svg>
