<svg width="122" height="122" viewBox="0 0 122 122" fill="none" xmlns="http://www.w3.org/2000/svg">
<g opacity="0.1">
<path d="M50.5131 78.7918C50.0593 77.0326 49.1423 75.4271 47.8577 74.1425C46.573 72.8578 44.9675 71.9409 43.2084 71.487L12.0221 63.4452C11.49 63.2942 11.0217 62.9737 10.6883 62.5325C10.3549 62.0912 10.1744 61.5532 10.1744 61.0001C10.1744 60.447 10.3549 59.909 10.6883 59.4678C11.0217 59.0265 11.49 58.7061 12.0221 58.555L43.2084 50.5081C44.9669 50.0547 46.572 49.1385 47.8566 47.8548C49.1412 46.5711 50.0585 44.9667 50.5131 43.2085L58.5549 12.0222C58.7044 11.488 59.0246 11.0174 59.4665 10.6822C59.9084 10.347 60.4479 10.1655 61.0026 10.1655C61.5573 10.1655 62.0967 10.347 62.5386 10.6822C62.9806 11.0174 63.3007 11.488 63.4502 12.0222L71.4869 43.2085C71.9408 44.9677 72.8577 46.5731 74.1424 47.8578C75.427 49.1424 77.0325 50.0594 78.7917 50.5132L109.978 58.55C110.514 58.6979 110.987 59.0177 111.324 59.4603C111.661 59.9029 111.844 60.4438 111.844 61.0001C111.844 61.5564 111.661 62.0974 111.324 62.54C110.987 62.9826 110.514 63.3024 109.978 63.4503L78.7917 71.487C77.0325 71.9409 75.427 72.8578 74.1424 74.1425C72.8577 75.4271 71.9408 77.0326 71.4869 78.7918L63.4451 109.978C63.2956 110.512 62.9755 110.983 62.5336 111.318C62.0916 111.653 61.5522 111.835 60.9975 111.835C60.4428 111.835 59.9033 111.653 59.4614 111.318C59.0195 110.983 58.6993 110.512 58.5499 109.978L50.5131 78.7918Z" stroke="white" stroke-width="10" stroke-linecap="round" stroke-linejoin="round"/>
<path d="M101.667 15.25V35.5833" stroke="white" stroke-width="10" stroke-linecap="round" stroke-linejoin="round"/>
<path d="M111.833 25.4165H91.5" stroke="white" stroke-width="10" stroke-linecap="round" stroke-linejoin="round"/>
<path d="M20.3334 86.4165V96.5832" stroke="white" stroke-width="10" stroke-linecap="round" stroke-linejoin="round"/>
<path d="M25.4167 91.5H15.25" stroke="white" stroke-width="10" stroke-linecap="round" stroke-linejoin="round"/>
</g>
</svg>
