<svg width="112" height="112" viewBox="0 0 112 112" fill="none" xmlns="http://www.w3.org/2000/svg">
<path d="M45.3387 73.6263C44.8848 71.8671 43.9679 70.2616 42.6832 68.977C41.3986 67.6923 39.7931 66.7753 38.0339 66.3215L6.84767 58.2797C6.3156 58.1287 5.84731 57.8082 5.51386 57.3669C5.18041 56.9257 5 56.3877 5 55.8346C5 55.2815 5.18041 54.7435 5.51386 54.3023C5.84731 53.861 6.3156 53.5405 6.84767 53.3895L38.0339 45.3426C39.7925 44.8892 41.3975 43.973 42.6821 42.6893C43.9667 41.4056 44.884 39.8012 45.3387 38.0429L53.3805 6.85668C53.53 6.32252 53.8501 5.85192 54.292 5.51669C54.734 5.18146 55.2734 5 55.8281 5C56.3828 5 56.9223 5.18146 57.3642 5.51669C57.8061 5.85192 58.1263 6.32252 58.2758 6.85668L66.3125 38.0429C66.7663 39.8021 67.6833 41.4076 68.9679 42.6922C70.2526 43.9769 71.8581 44.8939 73.6172 45.3477L104.804 53.3844C105.34 53.5324 105.813 53.8521 106.15 54.2947C106.487 54.7373 106.669 55.2783 106.669 55.8346C106.669 56.3909 106.487 56.9319 106.15 57.3745C105.813 57.8171 105.34 58.1368 104.804 58.2848L73.6172 66.3215C71.8581 66.7753 70.2526 67.6923 68.9679 68.977C67.6833 70.2616 66.7663 71.8671 66.3125 73.6263L58.2707 104.813C58.1212 105.347 57.801 105.817 57.3591 106.153C56.9172 106.488 56.3777 106.669 55.823 106.669C55.2684 106.669 54.7289 106.488 54.287 106.153C53.845 105.817 53.5249 105.347 53.3754 104.813L45.3387 73.6263Z" stroke="white" stroke-width="10" stroke-linecap="round" stroke-linejoin="round"/>
</svg>
