<svg width="1184" height="524" viewBox="0 0 1184 524" fill="none" xmlns="http://www.w3.org/2000/svg">
<g clip-path="url(#clip0_144_450)">
<path d="M33.4797 499.58V522.567H20.4089V499.58L0.0573425 468.338H15.8799L27.4602 488.401L39.0405 468.338H54.3472L33.537 499.58H33.4797Z" fill="white"/>
<path d="M82.8393 524C65.9275 524 53.3726 512.363 53.3726 495.223C53.3726 478.083 65.9275 466.905 82.8393 466.905C99.7511 466.905 112.363 477.854 112.363 495.223C112.363 512.592 99.8085 524 82.8393 524ZM82.8393 478.656C73.6668 478.656 67.3607 485.707 67.3607 495.166C67.3607 504.624 73.7241 512.019 82.8393 512.019C91.9545 512.019 98.3753 504.968 98.3753 495.166C98.3753 485.363 92.0118 478.656 82.8393 478.656Z" fill="white"/>
<path d="M143.607 524C129.39 524 120.504 515.114 120.504 502.102V468.338H133.517V501.013C133.517 506.802 136.327 512.191 143.722 512.191C151.117 512.191 153.926 506.86 153.926 501.013V468.338H166.997V502.102C166.997 515.114 157.825 524 143.665 524H143.607Z" fill="white"/>
<path d="M200.706 479.516V522.567H187.635V479.516H172.329V468.338H216.07V479.516H200.763H200.706Z" fill="white"/>
<path d="M256.2 522.509V499.866H235.046V522.509H221.975V468.338H235.046V488.86H256.2V468.338H269.271V522.509H256.2Z" fill="white"/>
<path d="M326.542 524C309.63 524 297.075 512.363 297.075 495.223C297.075 478.083 309.63 466.905 326.542 466.905C343.453 466.905 356.066 477.854 356.066 495.223C356.066 512.592 343.511 524 326.542 524ZM326.542 478.656C317.369 478.656 311.063 485.707 311.063 495.166C311.063 504.624 317.426 512.019 326.542 512.019C335.657 512.019 342.078 504.968 342.078 495.166C342.078 485.363 335.714 478.656 326.542 478.656Z" fill="white"/>
<path d="M393.73 522.509L382.035 501.013H377.621V522.509H364.78V468.338H385.475C395.909 468.338 406.228 472.293 406.228 484.733C406.228 492.013 401.928 497.229 394.992 499.35L409.152 522.567H393.845L393.73 522.509ZM384.443 478.886H377.449V491.497H383.641C387.826 491.497 393.157 490.408 393.157 484.905C393.157 479.86 388.341 478.828 384.443 478.828V478.886Z" fill="white"/>
<path d="M442.689 523.885C425.376 523.885 412.935 512.42 412.935 495.338C412.935 478.255 425.777 466.848 442.345 466.848C450.829 466.848 458.741 469.657 463.269 474.07L455.014 483.472C452.492 480.548 448.135 478.427 442.861 478.427C433.688 478.427 426.923 485.65 426.923 495.338C426.923 505.026 432.828 512.42 443.434 512.42C446.472 512.42 449.339 511.962 451.632 510.987V501.127H441.313V490.58H463.671V519.299C458.397 522.051 451.116 523.942 442.746 523.942L442.689 523.885Z" fill="white"/>
<path d="M511.081 522.509L506.896 511.847H485.914L481.958 522.509H467.741L490.5 468.338H503.227L525.757 522.509H511.196H511.081ZM496.52 482.784L489.64 501.414H503.285L496.52 482.784Z" fill="white"/>
<path d="M564.568 522.509L542.726 487.083H542.497L542.784 522.509H530.057V468.338H544.962L566.69 503.707H566.919L566.632 468.338H579.359V522.509H564.511H564.568Z" fill="white"/>
<path d="M590.595 522.509V468.338H603.781V522.509H590.595Z" fill="white"/>
<path d="M612.323 522.509V511.159L638.121 479.402H612.953V468.281H654.516V478.771L628.088 511.159H655.032V522.509H612.323Z" fill="white"/>
<path d="M700.264 522.509L696.079 511.847H675.097L671.142 522.509H656.924L679.684 468.338H692.41L714.94 522.509H700.379H700.264ZM685.703 482.784L678.824 501.414H692.468L685.703 482.784Z" fill="white"/>
<path d="M737.929 479.516V522.567H724.858V479.516H709.552V468.338H753.293V479.516H737.986H737.929Z" fill="white"/>
<path d="M759.198 522.509V468.338H772.383V522.509H759.198Z" fill="white"/>
<path d="M810.449 524C793.537 524 780.983 512.363 780.983 495.223C780.983 478.083 793.537 466.905 810.449 466.905C827.361 466.905 839.973 477.854 839.973 495.223C839.973 512.592 827.418 524 810.449 524ZM810.449 478.656C801.277 478.656 794.971 485.707 794.971 495.166C794.971 504.624 801.334 512.019 810.449 512.019C819.564 512.019 825.985 504.968 825.985 495.166C825.985 485.363 819.622 478.656 810.449 478.656Z" fill="white"/>
<path d="M883.084 522.509L861.242 487.083H861.013L861.3 522.509H848.573V468.338H863.478L885.205 503.707H885.435L885.148 468.338H897.875V522.509H883.027H883.084Z" fill="white"/>
<path d="M950.846 524C936.629 524 927.743 515.114 927.743 502.102V468.338H940.756V501.013C940.756 506.802 943.566 512.191 950.961 512.191C958.356 512.191 961.165 506.86 961.165 501.013V468.338H974.236V502.102C974.236 515.114 965.064 524 950.903 524H950.846Z" fill="white"/>
<path d="M1019.18 522.509L997.339 487.083H997.11L997.397 522.509H984.67V468.338H999.575L1021.3 503.707H1021.53L1021.25 468.338H1033.97V522.509H1019.12H1019.18Z" fill="white"/>
<path d="M1045.21 522.509V468.338H1058.39V522.509H1045.21Z" fill="white"/>
<path d="M1096.52 524C1079.61 524 1067.05 512.363 1067.05 495.223C1067.05 478.083 1079.61 466.905 1096.52 466.905C1113.43 466.905 1126.04 477.854 1126.04 495.223C1126.04 512.592 1113.49 524 1096.52 524ZM1096.52 478.656C1087.34 478.656 1081.04 485.707 1081.04 495.166C1081.04 504.624 1087.4 512.019 1096.52 512.019C1105.63 512.019 1112.05 504.968 1112.05 495.166C1112.05 485.363 1105.69 478.656 1096.52 478.656Z" fill="white"/>
<path d="M1169.15 522.509L1147.31 487.083H1147.08L1147.37 522.509H1134.64V468.338H1149.55L1171.27 503.707H1171.5L1171.22 468.338H1183.94V522.509H1169.09H1169.15Z" fill="white"/>
<path d="M763.555 278.538C777.106 278.538 788.091 267.554 788.091 254.003C788.091 240.453 777.106 229.469 763.555 229.469C750.004 229.469 739.018 240.453 739.018 254.003C739.018 267.554 750.004 278.538 763.555 278.538Z" fill="white"/>
<path d="M701.354 83.8654C714.905 83.8654 725.89 72.8808 725.89 59.3306C725.89 45.7805 714.905 34.7959 701.354 34.7959C687.802 34.7959 676.817 45.7805 676.817 59.3306C676.817 72.8808 687.802 83.8654 701.354 83.8654Z" fill="white"/>
<path d="M480.124 83.7506C493.675 83.7506 504.66 72.766 504.66 59.2159C504.66 45.6657 493.675 34.6812 480.124 34.6812C466.573 34.6812 455.587 45.6657 455.587 59.2159C455.587 72.766 466.573 83.7506 480.124 83.7506Z" fill="white"/>
<path d="M416.719 278.252C430.27 278.252 441.255 267.267 441.255 253.717C441.255 240.167 430.27 229.182 416.719 229.182C403.168 229.182 392.182 240.167 392.182 253.717C392.182 267.267 403.168 278.252 416.719 278.252Z" fill="white"/>
<path d="M589.392 407.861C602.943 407.861 613.928 396.877 613.928 383.327C613.928 369.777 602.943 358.792 589.392 358.792C575.84 358.792 564.855 369.777 564.855 383.327C564.855 396.877 575.84 407.861 589.392 407.861Z" fill="white"/>
<path d="M747.388 102.381L710.813 104.33C709.036 104.502 707.258 104.559 705.424 104.616H704.851C703.188 104.616 701.526 104.616 699.806 104.502C686.62 103.527 673.148 98.3108 664.721 87.7632C657.268 78.4193 654.402 66.4959 652.453 54.9738C651.077 46.891 649.472 38.8083 647.866 30.783C639.21 -10.3758 615.82 2.40751 615.82 2.40751L607.106 137.349C606.074 162.686 631.127 180.972 654.975 172.316L779.836 126.973C779.836 126.973 780.352 126.916 780.581 126.858C776.454 104.387 755.471 102.381 747.331 102.495L747.388 102.381Z" fill="white"/>
<path d="M739.477 314.251L724.858 280.659C724.113 279.054 723.368 277.392 722.737 275.729L722.508 275.213C721.877 273.666 721.304 272.118 720.845 270.513C717.176 257.787 717.348 243.398 724.285 231.819C730.419 221.558 740.623 214.736 750.713 208.832C757.822 204.705 764.816 200.405 771.753 196.049C807.239 173.52 787.117 156.094 787.117 156.094L657.67 195.189C633.592 203.1 625.222 232.965 641.675 252.284L727.839 353.346C727.839 353.346 728.069 353.805 728.241 353.977C747.904 342.225 742.401 321.875 739.477 314.308V314.251Z" fill="white"/>
<path d="M527.362 377.995L555.224 354.206C556.542 353.002 557.918 351.855 559.294 350.709L559.753 350.365C561.071 349.39 562.39 348.359 563.823 347.441C574.888 340.219 588.761 336.149 601.832 339.359C613.412 342.225 622.986 349.964 631.528 357.932C637.547 363.492 643.739 368.938 649.93 374.326C681.862 401.67 692.64 377.365 692.64 377.365L617.425 265.009C602.806 244.258 571.792 245.003 558.148 266.385L486.717 378.339C486.717 378.339 486.373 378.683 486.201 378.912C503.17 394.275 520.999 383.04 527.42 378.052L527.362 377.995Z" fill="white"/>
<path d="M434.319 100.948L470.894 103.183C472.671 103.355 474.448 103.47 476.226 103.527H476.799C478.461 103.527 480.124 103.527 481.844 103.47C495.029 102.553 508.559 97.5084 517.043 87.0181C524.553 77.7316 527.534 65.8081 529.598 54.286C531.031 46.2033 532.694 38.1779 534.414 30.0952C543.414 -11.0062 566.69 1.94905 566.69 1.94905L574.314 136.947C575.117 162.285 549.95 180.399 526.159 171.514L401.699 125.196C401.699 125.196 401.183 125.139 400.954 125.024C405.253 102.553 426.235 100.719 434.376 100.891L434.319 100.948Z" fill="white"/>
<path d="M440.224 312.359L455.186 278.939C455.989 277.334 456.677 275.672 457.365 274.067L457.594 273.551C458.225 272.003 458.798 270.455 459.314 268.85C463.155 256.182 463.155 241.736 456.333 230.099C450.313 219.781 440.224 212.845 430.134 206.826C423.082 202.641 416.146 198.227 409.209 193.813C373.952 170.883 394.246 153.686 394.246 153.686L523.292 194.157C547.313 202.354 555.339 232.277 538.713 251.424L451.46 351.569C451.46 351.569 451.231 352.028 451.059 352.2C431.567 340.276 437.242 319.983 440.281 312.417L440.224 312.359Z" fill="white"/>
<path d="M763.555 278.538C777.106 278.538 788.091 267.554 788.091 254.003C788.091 240.453 777.106 229.469 763.555 229.469C750.004 229.469 739.018 240.453 739.018 254.003C739.018 267.554 750.004 278.538 763.555 278.538Z" fill="white"/>
<path d="M701.354 83.8654C714.905 83.8654 725.89 72.8808 725.89 59.3306C725.89 45.7805 714.905 34.7959 701.354 34.7959C687.802 34.7959 676.817 45.7805 676.817 59.3306C676.817 72.8808 687.802 83.8654 701.354 83.8654Z" fill="white"/>
<path d="M480.124 83.7506C493.675 83.7506 504.66 72.766 504.66 59.2159C504.66 45.6657 493.675 34.6812 480.124 34.6812C466.573 34.6812 455.587 45.6657 455.587 59.2159C455.587 72.766 466.573 83.7506 480.124 83.7506Z" fill="white"/>
<path d="M416.719 278.252C430.27 278.252 441.255 267.267 441.255 253.717C441.255 240.167 430.27 229.182 416.719 229.182C403.168 229.182 392.182 240.167 392.182 253.717C392.182 267.267 403.168 278.252 416.719 278.252Z" fill="white"/>
<path d="M589.392 407.861C602.943 407.861 613.928 396.877 613.928 383.327C613.928 369.777 602.943 358.792 589.392 358.792C575.84 358.792 564.855 369.777 564.855 383.327C564.855 396.877 575.84 407.861 589.392 407.861Z" fill="white"/>
<path d="M747.388 102.381L710.813 104.33C709.036 104.502 707.258 104.559 705.424 104.616H704.851C703.188 104.616 701.526 104.616 699.806 104.502C686.62 103.527 673.148 98.3108 664.721 87.7632C657.268 78.4193 654.402 66.4959 652.453 54.9738C651.077 46.891 649.472 38.8083 647.866 30.783C639.21 -10.3758 615.82 2.40751 615.82 2.40751L607.106 137.349C606.074 162.686 631.127 180.972 654.975 172.316L779.836 126.973C779.836 126.973 780.352 126.916 780.581 126.858C776.454 104.387 755.471 102.381 747.331 102.495L747.388 102.381Z" fill="white"/>
<path d="M739.477 314.251L724.858 280.659C724.113 279.054 723.368 277.392 722.737 275.729L722.508 275.213C721.877 273.666 721.304 272.118 720.845 270.513C717.176 257.787 717.348 243.398 724.285 231.819C730.419 221.558 740.623 214.736 750.713 208.832C757.822 204.705 764.816 200.405 771.753 196.049C807.239 173.52 787.117 156.094 787.117 156.094L657.67 195.189C633.592 203.1 625.222 232.965 641.675 252.284L727.839 353.346C727.839 353.346 728.069 353.805 728.241 353.977C747.904 342.225 742.401 321.875 739.477 314.308V314.251Z" fill="white"/>
<path d="M527.362 377.995L555.224 354.206C556.542 353.002 557.918 351.855 559.294 350.709L559.753 350.365C561.071 349.39 562.39 348.359 563.823 347.441C574.888 340.219 588.761 336.149 601.832 339.359C613.412 342.225 622.986 349.964 631.528 357.932C637.547 363.492 643.739 368.938 649.93 374.326C681.862 401.67 692.64 377.365 692.64 377.365L617.425 265.009C602.806 244.258 571.792 245.003 558.148 266.385L486.717 378.339C486.717 378.339 486.373 378.683 486.201 378.912C503.17 394.275 520.999 383.04 527.42 378.052L527.362 377.995Z" fill="white"/>
<path d="M440.224 312.359L455.186 278.939C455.989 277.334 456.677 275.672 457.365 274.067L457.594 273.551C458.225 272.003 458.798 270.455 459.314 268.85C463.155 256.182 463.155 241.736 456.333 230.099C450.313 219.781 440.224 212.845 430.134 206.826C423.082 202.641 416.146 198.227 409.209 193.813C373.952 170.883 394.246 153.686 394.246 153.686L523.292 194.157C547.313 202.354 555.339 232.277 538.713 251.424L451.46 351.569C451.46 351.569 451.231 352.028 451.059 352.2C431.567 340.276 437.242 319.983 440.281 312.417L440.224 312.359Z" fill="white"/>
<path d="M1178.5 0C1158.49 0.286621 1090.33 3.84072 1090.33 39.611V244.373C1090.33 285.99 1070.6 324.34 1017.46 324.34C964.318 324.34 944.597 285.99 944.597 244.373V76.757V39.611C944.597 3.84072 876.893 0.286621 857 0H851.554V251.997C851.554 345.149 915.131 408.664 1017 408.664C1118.88 408.664 1184.11 345.091 1184.11 251.997V0H1178.61H1178.5Z" fill="white"/>
<path d="M388.456 0H307.967C282.284 0 263.653 26.4264 263.653 26.4264L196.177 143.482L130.307 29.2926C118.497 12.8979 105.943 5.67509 96.7701 2.52226C90.1773 0.401269 78.7117 0.0573241 73.9534 0H0L145.728 223.507V358.391C145.728 365.785 146.646 371.002 147.506 374.327C151.289 386.709 163.041 408.721 198.986 408.664H239.403V223.507L350.734 56.5789L388.456 0Z" fill="white"/>
</g>
<defs>
<clipPath id="clip0_144_450">
<rect width="1184" height="524" fill="white"/>
</clipPath>
</defs>
</svg>
